<?xml version="1.0" encoding="UTF-8" standalone="no"?>
<svg
   xmlns:dc="http://purl.org/dc/elements/1.1/"
   xmlns:cc="http://creativecommons.org/ns#"
   xmlns:rdf="http://www.w3.org/1999/02/22-rdf-syntax-ns#"
   xmlns:svg="http://www.w3.org/2000/svg"
   xmlns="http://www.w3.org/2000/svg"
   xmlns:sodipodi="http://sodipodi.sourceforge.net/DTD/sodipodi-0.dtd"
   xmlns:inkscape="http://www.inkscape.org/namespaces/inkscape"
   id="Layer_4"
   viewBox="95 151 1500.3 200"
   version="1.1"
   inkscape:version="0.91 r13725"
   sodipodi:docname="gdg-logo.svg"
   width="1500.3"
   height="200">
  <metadata
     id="metadata4257">
    <rdf:RDF>
      <cc:Work
         rdf:about="">
        <dc:format>image/svg+xml</dc:format>
        <dc:type
           rdf:resource="http://purl.org/dc/dcmitype/StillImage" />
        <dc:title></dc:title>
      </cc:Work>
    </rdf:RDF>
  </metadata>
  <defs
     id="defs4255" />
  <sodipodi:namedview
     pagecolor="#ffffff"
     bordercolor="#666666"
     borderopacity="1"
     objecttolerance="10"
     gridtolerance="10"
     guidetolerance="10"
     inkscape:pageopacity="0"
     inkscape:pageshadow="2"
     inkscape:window-width="1297"
     inkscape:window-height="638"
     id="namedview4253"
     showgrid="false"
     inkscape:zoom="0.51801266"
     inkscape:cx="770.09266"
     inkscape:cy="105.89398"
     inkscape:window-x="20"
     inkscape:window-y="65"
     inkscape:window-maximized="0"
     inkscape:current-layer="Layer_4" />
  <style
     id="style4238">.st0{fill:#757575;}</style>
  <g
     id="XMLID_6_"
     transform="translate(-12,0)">
    <path
       id="XMLID_3_"
       class="st0"
       d="m 454.9,255.4 c 0,22 -6.5,39.6 -19.6,52.7 -14.8,15.6 -34.1,23.4 -57.9,23.4 -22.8,0 -42.1,-7.9 -58.1,-23.7 -15.9,-15.8 -23.9,-35.4 -23.9,-58.7 0,-23.3 8,-42.9 23.9,-58.7 15.9,-15.8 35.3,-23.7 58.1,-23.7 11.3,0 22.1,2.2 32.4,6.6 10.3,4.4 18.5,10.3 24.7,17.6 l -13.9,13.9 C 410.1,192.2 395.7,186 377.3,186 c -16.6,0 -31,5.8 -43.1,17.5 -12.1,11.7 -18.2,26.8 -18.2,45.5 0,18.7 6.1,33.8 18.2,45.5 12.1,11.7 26.5,17.5 43.1,17.5 17.6,0 32.3,-5.9 44.1,-17.6 7.6,-7.6 12,-18.3 13.2,-31.9 l -57.3,0 0,-19 76.4,0 c 0.8,4.1 1.2,8.1 1.2,11.9 z"
       inkscape:connector-curvature="0"
       style="fill:#757575" />
    <path
       id="XMLID_20_"
       class="st0"
       d="m 475.3,327.9 0,-157.8 48.2,0 c 24.2,0 43.6,7.3 58.2,21.9 14.5,14.6 21.8,33.6 21.8,57 0,23.4 -7.3,42.3 -21.8,57 -14.5,14.6 -33.9,21.9 -58.2,21.9 l -48.2,0 z m 20.3,-19.4 28,0 c 18.2,0 32.6,-5.2 43.3,-15.6 10.6,-10.4 16,-25 16,-43.8 0,-18.7 -5.3,-33.2 -16,-43.7 -10.7,-10.5 -25.1,-15.8 -43.3,-15.8 l -28,0 0,118.9 z"
       inkscape:connector-curvature="0"
       style="fill:#757575" />
    <path
       id="XMLID_23_"
       class="st0"
       d="m 776,255.4 c 0,22 -6.5,39.6 -19.6,52.7 -14.8,15.6 -34.1,23.4 -57.9,23.4 -22.8,0 -42.1,-7.9 -58.1,-23.7 -15.9,-15.8 -23.9,-35.4 -23.9,-58.7 0,-23.3 8,-42.9 23.9,-58.7 15.9,-15.8 35.3,-23.7 58.1,-23.7 11.3,0 22.1,2.2 32.4,6.6 10.3,4.4 18.5,10.3 24.7,17.6 l -13.9,13.9 C 731.2,192.2 716.8,186 698.4,186 c -16.6,0 -31,5.8 -43.1,17.5 -12.1,11.7 -18.2,26.8 -18.2,45.5 0,18.7 6.1,33.8 18.2,45.5 12.1,11.7 26.5,17.5 43.1,17.5 17.6,0 32.3,-5.9 44.1,-17.6 7.6,-7.6 12,-18.3 13.2,-31.9 l -57.3,0 0,-19 76.4,0 c 0.8,4.1 1.2,8.1 1.2,11.9 z"
       inkscape:connector-curvature="0"
       style="fill:#757575" />
  </g>
  <g
     id="XMLID_261_">
    <path
       id="XMLID_259_"
       class="st0"
       d="M 127.3,151 95,151 187.3,311 203.5,283 127.3,151 Z"
       inkscape:connector-curvature="0"
       style="fill:#757575" />
    <path
       id="XMLID_258_"
       class="st0"
       d="m 215.9,242 -52.6,-91 -32.2,0 74.3,128.8 10.5,-18.2 c 1.7,-2.8 2.8,-6.2 2.8,-9.8 -0.1,-3.6 -1.1,-6.9 -2.8,-9.8 z"
       inkscape:connector-curvature="0"
       style="fill:#757575" />
    <path
       id="XMLID_257_"
       class="st0"
       d="m 151.3,255.1 -55.4,95.9 32.3,0 39.3,-68 -16.2,-27.9 z"
       inkscape:connector-curvature="0"
       style="fill:#757575" />
    <path
       id="XMLID_256_"
       class="st0"
       d="M 169.3,286.3 132,351 l 32.2,0 21.3,-36.8 -16.2,-27.9 z"
       inkscape:connector-curvature="0"
       style="fill:#757575" />
  </g>
  <flowRoot
     xml:space="preserve"
     id="flowRoot4799"
     style="font-style:italic;font-variant:normal;font-weight:normal;font-stretch:normal;font-size:18.09375px;line-height:125%;font-family:sans-serif;-inkscape-font-specification:'sans-serif, Italic';text-align:start;letter-spacing:0px;word-spacing:0px;writing-mode:lr-tb;text-anchor:start;fill:#757575;fill-opacity:1;stroke:none;stroke-width:1px;stroke-linecap:butt;stroke-linejoin:miter;stroke-opacity:1"
     transform="translate(139.10317,312.94957)"><flowRegion
       id="flowRegion4801"><rect
         id="rect4803"
         width="1090.707"
         height="604.23236"
         x="671.79828"
         y="-205.39551"
         style="fill:#757575;fill-opacity:1" /></flowRegion><flowPara
       id="flowPara4805"
       style="font-style:normal;font-variant:normal;font-weight:600;font-stretch:normal;font-size:225px;font-family:'Open Sans';-inkscape-font-specification:'Open Sans Semi-Bold';fill:#757575;fill-opacity:1">Madrid</flowPara></flowRoot></svg>
