<?xml version="1.0" encoding="UTF-8" standalone="no"?>
<svg
   xmlns:dc="http://purl.org/dc/elements/1.1/"
   xmlns:cc="http://creativecommons.org/ns#"
   xmlns:rdf="http://www.w3.org/1999/02/22-rdf-syntax-ns#"
   xmlns:svg="http://www.w3.org/2000/svg"
   xmlns="http://www.w3.org/2000/svg"
   xmlns:sodipodi="http://sodipodi.sourceforge.net/DTD/sodipodi-0.dtd"
   xmlns:inkscape="http://www.inkscape.org/namespaces/inkscape"
   id="Layer_4"
   viewBox="0 0 839 200"
   version="1.1"
   inkscape:version="0.91 r13725"
   sodipodi:docname="logo-white.svg">
  <metadata
     id="metadata4336">
    <rdf:RDF>
      <cc:Work
         rdf:about="">
        <dc:format>image/svg+xml</dc:format>
        <dc:type
           rdf:resource="http://purl.org/dc/dcmitype/StillImage" />
        <dc:title></dc:title>
      </cc:Work>
    </rdf:RDF>
  </metadata>
  <defs
     id="defs4334" />
  <sodipodi:namedview
     pagecolor="#ffffff"
     bordercolor="#666666"
     borderopacity="1"
     objecttolerance="10"
     gridtolerance="10"
     guidetolerance="10"
     inkscape:pageopacity="0"
     inkscape:pageshadow="2"
     inkscape:window-width="708"
     inkscape:window-height="480"
     id="namedview4332"
     showgrid="false"
     inkscape:zoom="0.9511323"
     inkscape:cx="385.61645"
     inkscape:cy="-34.738863"
     inkscape:window-x="20"
     inkscape:window-y="65"
     inkscape:window-maximized="0"
     inkscape:current-layer="Layer_4" />
  <style
     id="style4304">.st0{fill:#FFFFFF;}</style>
  <g
     id="XMLID_7_">
    <path
       id="XMLID_2_"
       class="st0"
       d="M275.5 51.8c0 10.9-3.2 19.7-9.7 26.1-7.4 7.7-17 11.6-28.8 11.6-11.3 0-20.9-3.9-28.8-11.8-7.9-7.8-11.9-17.6-11.9-29.1s4-21.3 11.9-29.1c7.9-7.8 17.5-11.8 28.8-11.8 5.6 0 11 1.1 16.1 3.3 5.1 2.2 9.2 5.1 12.2 8.8l-6.9 6.9c-5.2-6.2-12.3-9.3-21.4-9.3-8.2 0-15.4 2.9-21.4 8.7-6 5.8-9 13.3-9 22.6s3 16.8 9 22.6c6 5.8 13.1 8.7 21.4 8.7 8.8 0 16-2.9 21.9-8.8 3.8-3.8 6-9.1 6.6-15.9H237v-9.4h38c.3 2.1.5 4 .5 5.9z" />
    <path
       id="XMLID_4_"
       class="st0"
       d="M285.4 87.8V9.5h24c12 0 21.7 3.6 28.9 10.9 7.2 7.3 10.8 16.7 10.8 28.3s-3.6 21-10.8 28.3c-7.2 7.3-16.8 10.9-28.9 10.9h-24zm10.1-9.6h13.9c9 0 16.2-2.6 21.5-7.8 5.3-5.2 7.9-12.4 7.9-21.8 0-9.3-2.6-16.5-7.9-21.7-5.3-5.2-12.5-7.8-21.5-7.8h-13.9v59.1z" />
    <path
       id="XMLID_8_"
       class="st0"
       d="M434.5 51.8c0 10.9-3.2 19.7-9.7 26.1-7.4 7.7-17 11.6-28.8 11.6-11.3 0-20.9-3.9-28.8-11.8-7.9-7.8-11.9-17.6-11.9-29.1s4-21.3 11.9-29.1c7.9-7.8 17.5-11.8 28.8-11.8 5.6 0 11 1.1 16.1 3.3 5.1 2.2 9.2 5.1 12.2 8.8l-6.9 6.9c-5.2-6.2-12.3-9.3-21.4-9.3-8.2 0-15.4 2.9-21.4 8.7-6 5.8-9 13.3-9 22.6s3 16.8 9 22.6c6 5.8 13.1 8.7 21.4 8.7 8.8 0 16-2.9 21.9-8.8 3.8-3.8 6-9.1 6.6-15.9H396v-9.4h38c.3 2.1.5 4 .5 5.9z" />
    <path
       id="XMLID_10_"
       class="st0"
       d="M470.8 87.8V9.5h24c12 0 21.7 3.6 28.9 10.9 7.2 7.3 10.8 16.7 10.8 28.3s-3.6 21-10.8 28.3c-7.2 7.3-16.8 10.9-28.9 10.9h-24zm10.1-9.6h13.9c9 0 16.2-2.6 21.5-7.8 5.3-5.2 7.9-12.4 7.9-21.8 0-9.3-2.6-16.5-7.9-21.7-5.3-5.2-12.5-7.8-21.5-7.8h-13.9v59.1z" />
    <path
       id="XMLID_13_"
       class="st0"
       d="M567.4 89.6c-8.1 0-14.7-2.7-19.7-8.1-5.1-5.4-7.6-12.2-7.6-20.5 0-7.8 2.5-14.5 7.4-20.1 4.9-5.6 11.2-8.4 18.9-8.4 7.9 0 14.3 2.6 19.1 7.8 4.8 5.2 7.2 12.1 7.2 20.8l-.1 1.9h-42.3c.3 5.4 2.1 9.7 5.4 12.8 3.3 3.1 7.2 4.7 11.6 4.7 7.2 0 12.1-3.1 14.7-9.2l9 3.7c-1.8 4.2-4.6 7.6-8.6 10.4-4.2 2.8-9.1 4.2-15 4.2zm14.5-35c-.2-3.1-1.6-6-4.2-8.8-2.6-2.8-6.4-4.2-11.5-4.2-3.7 0-6.9 1.2-9.7 3.5-2.7 2.3-4.6 5.5-5.6 9.4h31z" />
    <path
       id="XMLID_16_"
       class="st0"
       d="M613.7 87.8L592 34.2h11l15.8 41.6h.2l16-41.6h10.7l-21.9 53.6h-10.1z"
       style="fill:#ffffff" />
    <path
       id="XMLID_18_"
       class="st0"
       d="M661.6 87.8h-10.1V9.5h45.7v9.6h-35.7v25.7h32.2v9.4h-32.2v33.6z" />
    <path
       id="XMLID_20_"
       class="st0"
       d="M727.7 89.6c-8.1 0-14.7-2.7-19.7-8.1-5.1-5.4-7.6-12.2-7.6-20.5 0-7.8 2.5-14.5 7.4-20.1 4.9-5.6 11.2-8.4 18.9-8.4 7.9 0 14.3 2.6 19.1 7.8 4.8 5.2 7.2 12.1 7.2 20.8l-.1 1.9h-42.3c.3 5.4 2.1 9.7 5.4 12.8 3.3 3.1 7.2 4.7 11.6 4.7 7.2 0 12.1-3.1 14.7-9.2l9 3.7c-1.8 4.2-4.6 7.6-8.6 10.4-4.3 2.8-9.2 4.2-15 4.2zm14.4-35c-.2-3.1-1.6-6-4.2-8.8-2.6-2.8-6.4-4.2-11.5-4.2-3.7 0-6.9 1.2-9.7 3.5-2.7 2.3-4.6 5.5-5.6 9.4h31z" />
    <path
       id="XMLID_27_"
       class="st0"
       d="M779.5 89.6c-6 0-10.9-1.5-14.8-4.4-3.9-2.9-6.8-6.6-8.6-10.9l9-3.7c2.8 6.7 7.7 10.1 14.5 10.1 3.1 0 5.7-.7 7.7-2.1 2-1.4 3-3.2 3-5.5 0-3.5-2.4-5.9-7.3-7.1l-10.8-2.6c-3.4-.9-6.7-2.5-9.7-5-3.1-2.4-4.6-5.7-4.6-9.9 0-4.7 2.1-8.6 6.3-11.5 4.2-3 9.2-4.4 14.9-4.4 4.7 0 9 1.1 12.7 3.2 3.7 2.2 6.4 5.2 8 9.2l-8.8 3.6c-2-4.7-6.1-7.1-12.2-7.1-3 0-5.5.6-7.5 1.9-2 1.2-3.1 2.9-3.1 5 0 3.1 2.4 5.1 7.1 6.2l10.6 2.5c5 1.2 8.8 3.2 11.2 6 2.4 2.8 3.6 6.1 3.6 9.6 0 4.8-2 8.8-5.9 12-4 3.3-9.1 4.9-15.3 4.9z" />
    <path
       id="XMLID_29_"
       class="st0"
       d="M830.9 88.7c-5.6 0-9.9-1.5-12.9-4.5s-4.4-7.2-4.4-12.7V43.4h-9.4v-9.2h9.4V17.8h10.1v16.4h13.1v9.2h-13.1v27.3c0 5.8 2.4 8.8 7.2 8.8 1.8 0 3.4-.3 4.6-.9l3.5 8.6c-2.2 1-4.9 1.5-8.1 1.5z" />
    <path
       id="XMLID_46_"
       class="st0"
       d="m 643.5,190.9 -47.7,0 0,-10.1 c 14.3,-14.4 23.4,-23.7 27.5,-28.1 3.6,-4 6,-7.1 7.2,-9.1 1.2,-2.1 1.9,-4.6 1.9,-7.7 0,-3.1 -1.2,-5.9 -3.7,-8.3 -2.5,-2.4 -5.8,-3.6 -10,-3.6 -3.8,0 -6.9,1.1 -9.2,3.3 -2.3,2.2 -3.8,4.6 -4.5,7.2 l -9.2,-3.7 c 1.2,-3.9 3.8,-7.7 7.8,-11.2 3.9,-3.5 9,-5.2 15.3,-5.2 6.9,0 12.6,2.1 17.1,6.3 4.4,4.2 6.7,9.3 6.7,15.2 0,7.3 -4,15.1 -11.9,23.4 l -21.9,22 34.7,0 0,9.6 z"
       style="fill:#ffffff"
       inkscape:connector-curvature="0" />
    <path
       id="XMLID_48_"
       class="st0"
       d="m 701.1,181.4 c -5.5,7.5 -12.8,11.3 -21.8,11.3 -9,0 -16.2,-3.8 -21.8,-11.3 -5.5,-7.5 -8.3,-16.8 -8.3,-27.9 0,-11.2 2.8,-20.5 8.3,-27.9 5.5,-7.5 12.8,-11.2 21.8,-11.2 9,0 16.2,3.7 21.8,11.2 5.5,7.5 8.3,16.8 8.3,27.9 0,11.1 -2.8,20.4 -8.3,27.9 z m -21.8,1.7 c 6,0 10.8,-2.8 14.4,-8.4 3.6,-5.6 5.4,-12.6 5.4,-21.1 0,-8.5 -1.8,-15.6 -5.4,-21.2 -3.6,-5.6 -8.4,-8.4 -14.4,-8.4 -6.1,0 -10.9,2.8 -14.4,8.4 -3.6,5.6 -5.4,12.6 -5.4,21.2 0,8.5 1.8,15.5 5.4,21.1 3.6,5.6 8.4,8.4 14.4,8.4 z"
       inkscape:connector-curvature="0"
       style="fill:#ffffff" />
    <path
       id="XMLID_51_"
       class="st0"
       d="m 741.3,190.9 -10.1,0 0,-62.3 -14.5,6.3 -3.8,-8.5 22,-10.3 6.5,0 0,74.8 z"
       inkscape:connector-curvature="0"
       style="fill:#ffffff" />
    <path
       id="XMLID_53_"
       class="st0"
       d="m 779.5,143.1 c 5.8,0 11.2,2.4 16.1,7.2 4.9,4.8 7.3,10.6 7.3,17.3 0,6.6 -2.5,12.5 -7.6,17.5 -5.1,5 -11.1,7.5 -18,7.5 -7.4,0 -13.6,-2.5 -18.4,-7.6 -4.9,-5.1 -7.3,-10.9 -7.3,-17.4 0,-6.9 2.9,-14.7 8.8,-23.2 l 20.3,-30.1 8.1,5.6 -17.8,24.7 0.2,0.2 c 1.8,-1.1 4.5,-1.7 8.3,-1.7 z m -2.2,39.8 c 4.2,0 7.9,-1.5 10.9,-4.4 3,-2.9 4.5,-6.5 4.5,-10.8 0,-4.2 -1.5,-7.8 -4.5,-10.8 -3,-3 -6.7,-4.4 -10.9,-4.4 -4.2,0 -7.9,1.5 -10.9,4.4 -3.1,3 -4.6,6.5 -4.6,10.8 0,4.3 1.5,7.9 4.5,10.8 3,3 6.7,4.4 11,4.4 z"
       inkscape:connector-curvature="0"
       style="fill:#ffffff" />
  </g>
  <g
     id="XMLID_261_">
    <path
       id="XMLID_259_"
       class="st0"
       d="M32.3 0H0l92.3 160 16.2-28z" />
    <path
       id="XMLID_258_"
       class="st0"
       d="M120.9 91L68.3 0H36.1l74.3 128.8 10.5-18.2c1.7-2.8 2.8-6.2 2.8-9.8-.1-3.6-1.1-6.9-2.8-9.8z" />
    <path
       id="XMLID_257_"
       class="st0"
       d="M56.3 104.1L.9 200h32.3l39.3-68z" />
    <path
       id="XMLID_256_"
       class="st0"
       d="M74.3 135.3L37 200h32.2l21.3-36.8z" />
  </g>
  <flowRoot
     xml:space="preserve"
     id="flowRoot4878"
     style="font-style:italic;font-variant:normal;font-weight:normal;font-stretch:normal;font-size:18.09375px;line-height:125%;font-family:sans-serif;-inkscape-font-specification:'sans-serif, Italic';text-align:start;letter-spacing:0px;word-spacing:0px;writing-mode:lr-tb;text-anchor:start;fill:#ffffff;fill-opacity:1;stroke:none;stroke-width:1px;stroke-linecap:butt;stroke-linejoin:miter;stroke-opacity:1;"
     transform="translate(69.390977,-195.65915)"><flowRegion
       id="flowRegion4880"><rect
         id="rect4882"
         width="611.90228"
         height="180.8371"
         x="113.54887"
         y="277.802"
         style="fill:#ffffff;" /></flowRegion><flowPara
       id="flowPara4884"
       style="font-style:normal;font-variant:normal;font-weight:600;font-stretch:normal;font-size:112.5px;font-family:'Open Sans';-inkscape-font-specification:'Open Sans Semi-Bold';fill:#ffffff;">Madrid</flowPara></flowRoot></svg>
